<svg width="166" height="265" viewBox="0 0 166 265" fill="none" xmlns="http://www.w3.org/2000/svg">
  <g clip-path="url(#cursors_svg__clip0_15_3796)">
    <path d="M0 0h166v265H0z"></path>
  <g filter="url(#cursors_svg__filter0_d_15_3796)" fill-rule="evenodd" clip-rule="evenodd" fill="#F2994A">
    <path d="M4.848 226.991a.5.5 0 01-.848-.359v-13.611a.5.5 0 01.854-.353l9.893 9.9a.5.5 0 01-.354.854h-5.66a.501.501 0 00-.318.113l-.013.01-3.554 3.446z"></path>
    <path d="M5.854 214.971a.5.5 0 00-.854.353v8.811a.5.5 0 00.847.359l2.122-2.05.019-.016a.503.503 0 01.328-.123l3.643.006a.5.5 0 00.355-.852l-6.46-6.488z"></path>
  </g>
  <g filter="url(#cursors_svg__filter1_d_15_3796)">
    <rect x="9" y="226.313" width="53" height="18" rx="1" fill="#F2994A"></rect>
    <path d="M18.368 237.299c0-.161-.025-.304-.075-.429a.836.836 0 00-.253-.344 2.089 2.089 0 00-.515-.301 6.93 6.93 0 00-.838-.306 9.508 9.508 0 01-1.032-.381 3.927 3.927 0 01-.816-.495 2.108 2.108 0 01-.542-.649 1.823 1.823 0 01-.194-.854c0-.319.066-.609.199-.871.136-.261.328-.487.575-.676.25-.194.546-.342.886-.446.34-.108.716-.161 1.128-.161.58 0 1.08.107 1.498.322.423.215.747.503.973.865.229.361.343.761.343 1.198h-1.337c0-.258-.056-.486-.167-.683a1.127 1.127 0 00-.494-.472c-.218-.115-.496-.172-.832-.172-.319 0-.584.048-.795.145a1.06 1.06 0 00-.473.392 1.026 1.026 0 00-.156.559c0 .146.034.281.102.402.068.119.172.23.312.333.14.101.315.196.526.285.212.09.46.176.747.258a7.35 7.35 0 011.133.43c.322.154.591.329.806.526.215.197.376.421.483.671.108.247.161.528.161.844 0 .329-.066.626-.198.891a1.928 1.928 0 01-.57.672 2.731 2.731 0 01-.88.424c-.34.097-.72.145-1.14.145-.375 0-.746-.05-1.111-.15a3.303 3.303 0 01-.988-.457 2.37 2.37 0 01-.71-.773 2.186 2.186 0 01-.262-1.091h1.348c0 .254.043.471.129.65.09.179.213.326.37.441.158.111.34.193.548.247.211.053.437.08.677.08.315 0 .578-.045.79-.134.214-.09.375-.215.483-.376a.983.983 0 00.16-.559zm3.805-6.236v8.25h-1.289v-8.25h1.29zm-.225 5.13l-.42-.005c.004-.402.06-.772.167-1.112.111-.34.265-.636.462-.887a2.056 2.056 0 011.65-.794c.286 0 .543.039.773.118.232.078.433.206.601.381.168.172.296.398.381.677a3.3 3.3 0 01.135 1.01v3.732h-1.3v-3.743c0-.279-.041-.501-.124-.666a.717.717 0 00-.349-.355 1.28 1.28 0 00-.564-.112 1.32 1.32 0 00-.617.139 1.28 1.28 0 00-.44.382 1.758 1.758 0 00-.27.558 2.576 2.576 0 00-.085.677zm8.446 1.955v-2.772c0-.207-.038-.386-.113-.537a.795.795 0 00-.344-.349 1.18 1.18 0 00-.57-.123c-.21 0-.393.036-.547.107a.886.886 0 00-.36.29.702.702 0 00-.129.414h-1.289c0-.229.055-.451.166-.666.112-.215.273-.407.484-.575.211-.168.464-.301.757-.397a3.14 3.14 0 01.988-.145c.437 0 .824.073 1.16.22.34.147.608.369.801.666.197.293.295.662.295 1.106v2.584c0 .265.018.503.054.714.04.208.095.389.167.543v.085h-1.327a2.272 2.272 0 01-.145-.531 4.356 4.356 0 01-.048-.634zm.188-2.369l.01.801h-.929c-.24 0-.451.023-.634.069a1.301 1.301 0 00-.456.194.843.843 0 00-.274.311.914.914 0 00-.091.414c0 .154.035.295.107.424a.752.752 0 00.311.296c.14.071.308.107.505.107.265 0 .496-.054.693-.161.2-.111.358-.245.473-.403a.875.875 0 00.183-.456l.418.574a1.962 1.962 0 01-.22.473c-.104.168-.24.329-.408.483a2.025 2.025 0 01-1.391.516 2.21 2.21 0 01-1.015-.226 1.81 1.81 0 01-.698-.617 1.604 1.604 0 01-.253-.887c0-.308.057-.58.172-.816.118-.24.29-.44.516-.602.229-.161.508-.282.838-.365.329-.086.705-.129 1.127-.129h1.016zm3.859-1.036v4.57h-1.295v-5.811h1.22l.075 1.241zm-.231 1.45l-.42-.005c.004-.412.062-.79.173-1.134.114-.344.272-.639.472-.886a2.08 2.08 0 01.73-.569c.284-.136.599-.204.946-.204.28 0 .532.039.757.118.23.075.425.198.586.37.164.172.29.396.376.672.086.272.129.607.129 1.004v3.754h-1.3v-3.759c0-.28-.041-.5-.124-.661a.69.69 0 00-.349-.349 1.304 1.304 0 00-.564-.107 1.253 1.253 0 00-1.042.521c-.118.161-.21.347-.274.558a2.31 2.31 0 00-.096.677zm6.464-1.45v4.57h-1.295v-5.811h1.22l.075 1.241zm-.231 1.45l-.42-.005c.004-.412.062-.79.173-1.134.114-.344.272-.639.472-.886a2.08 2.08 0 01.73-.569c.284-.136.599-.204.946-.204.28 0 .532.039.757.118.23.075.425.198.586.37.165.172.29.396.376.672.086.272.129.607.129 1.004v3.754h-1.3v-3.759c0-.28-.041-.5-.124-.661a.69.69 0 00-.349-.349 1.304 1.304 0 00-.564-.107 1.253 1.253 0 00-1.042.521c-.118.161-.21.347-.274.558a2.306 2.306 0 00-.096.677zm4.933.279v-.123c0-.419.06-.808.183-1.166.121-.362.297-.675.526-.94.233-.268.515-.476.849-.623.336-.15.716-.225 1.138-.225.426 0 .806.075 1.139.225.337.147.621.355.854.623.233.265.41.578.532.94a3.6 3.6 0 01.182 1.166v.123a3.6 3.6 0 01-.182 1.166 2.794 2.794 0 01-.532.94 2.47 2.47 0 01-.849.623 2.78 2.78 0 01-1.133.22c-.426 0-.807-.074-1.144-.22a2.47 2.47 0 01-.849-.623 2.792 2.792 0 01-.531-.94 3.6 3.6 0 01-.183-1.166zm1.294-.123v.123c0 .262.027.509.08.741.055.233.139.437.253.613.115.175.262.313.44.413.18.101.393.151.64.151a1.227 1.227 0 001.063-.564 1.89 1.89 0 00.253-.613c.057-.232.086-.479.086-.741v-.123c0-.258-.029-.502-.086-.731a1.886 1.886 0 00-.258-.618 1.228 1.228 0 00-1.069-.574 1.24 1.24 0 00-.634.156c-.175.1-.32.239-.435.418-.114.18-.198.385-.252.618-.054.229-.08.473-.08.731zm6.588-1.606v4.57h-1.294v-5.811h1.219l.075 1.241zm-.231 1.45l-.419-.005c.004-.412.06-.79.172-1.134.114-.344.272-.639.472-.886a2.08 2.08 0 01.731-.569c.283-.136.598-.204.945-.204.28 0 .532.039.758.118.229.075.424.198.585.37.165.172.29.396.376.672.086.272.129.607.129 1.004v3.754h-1.3v-3.759c0-.28-.041-.5-.123-.661a.69.69 0 00-.35-.349 1.304 1.304 0 00-.563-.107 1.253 1.253 0 00-1.042.521c-.119.161-.21.347-.274.558a2.31 2.31 0 00-.097.677z" fill="#fff"></path>
  </g>
  <g filter="url(#cursors_svg__filter2_d_15_3796)" fill-rule="evenodd" clip-rule="evenodd" fill="#FF4FB8">
    <path d="M125.848 240.991a.5.5 0 01-.848-.359v-13.611a.5.5 0 01.854-.353l9.893 9.9a.5.5 0 01-.354.854h-5.661a.504.504 0 00-.317.113l-.013.01-3.554 3.446z"></path><path d="M126.854 228.971a.5.5 0 00-.854.353v8.811a.5.5 0 00.847.36l2.122-2.051.019-.016a.496.496 0 01.328-.122l3.643.006a.5.5 0 00.355-.853l-6.46-6.488z"></path>
  </g>
  <g filter="url(#cursors_svg__filter3_d_15_3796)">
    <rect x="131" y="241.813" width="31" height="18" rx="1" fill="#FF4FB8"></rect>
    <path d="M140.34 252.799c0-.161-.025-.304-.076-.429a.828.828 0 00-.252-.344 2.096 2.096 0 00-.516-.301 6.844 6.844 0 00-.838-.306 9.526 9.526 0 01-1.031-.381 3.942 3.942 0 01-.816-.495 2.107 2.107 0 01-.543-.649 1.822 1.822 0 01-.193-.854c0-.319.066-.609.199-.871.136-.261.327-.487.574-.676a2.74 2.74 0 01.887-.446c.34-.108.716-.161 1.128-.161.58 0 1.079.107 1.498.322.423.215.747.503.972.865.229.361.344.761.344 1.198h-1.337c0-.258-.056-.486-.167-.683a1.125 1.125 0 00-.494-.472c-.218-.115-.496-.172-.833-.172-.318 0-.583.048-.795.145a1.06 1.06 0 00-.472.392 1.026 1.026 0 00-.156.559c0 .146.034.281.102.402.068.119.172.23.312.333.139.101.315.196.526.285.211.09.46.176.747.258a7.35 7.35 0 011.133.43c.322.154.591.329.806.526.214.197.376.421.483.671.107.247.161.528.161.844 0 .329-.066.626-.199.891a1.922 1.922 0 01-.569.672 2.725 2.725 0 01-.881.424 4.15 4.15 0 01-1.139.145 4.19 4.19 0 01-1.111-.15 3.31 3.31 0 01-.989-.457 2.379 2.379 0 01-.709-.773 2.192 2.192 0 01-.263-1.091h1.348c0 .254.043.471.129.65.09.179.213.326.371.441.157.111.34.193.548.247.211.053.437.08.676.08.316 0 .579-.045.79-.134.215-.09.376-.215.483-.376a.979.979 0 00.162-.559zm3.805-6.236v8.25h-1.289v-8.25h1.289zm-.226 5.13l-.419-.005c.004-.402.059-.772.167-1.112a2.86 2.86 0 01.462-.887 2.052 2.052 0 011.649-.794c.286 0 .544.039.773.118.233.078.433.206.602.381.168.172.295.398.381.677.09.276.134.612.134 1.01v3.732h-1.299v-3.743c0-.279-.042-.501-.124-.666a.718.718 0 00-.349-.355 1.28 1.28 0 00-.564-.112c-.233 0-.439.046-.618.139-.175.093-.322.22-.44.382a1.763 1.763 0 00-.269.558 2.589 2.589 0 00-.086.677zm6.556-2.691v5.811h-1.3v-5.811h1.3zm-1.386-1.525c0-.197.064-.36.193-.489.133-.133.315-.199.548-.199.229 0 .41.066.543.199a.655.655 0 01.198.489.648.648 0 01-.198.483c-.133.129-.314.193-.543.193-.233 0-.415-.064-.548-.193a.655.655 0 01-.193-.483zm4.197 2.766v4.57h-1.294v-5.811h1.219l.075 1.241zm-.231 1.45l-.419-.005c.004-.412.061-.79.172-1.134.115-.344.272-.639.473-.886.204-.247.447-.437.73-.569.283-.136.598-.204.946-.204.279 0 .531.039.757.118.229.075.424.198.585.37.165.172.29.396.376.672.086.272.129.607.129 1.004v3.754h-1.299v-3.759c0-.28-.042-.5-.124-.661a.69.69 0 00-.349-.349 1.308 1.308 0 00-.564-.107c-.222 0-.421.046-.596.139a1.33 1.33 0 00-.446.382c-.118.161-.21.347-.274.558a2.323 2.323 0 00-.097.677z" fill="#fff"></path>
  </g>
  <g filter="url(#cursors_svg__filter4_d_15_3796)" fill-rule="evenodd" clip-rule="evenodd" fill="#D274FF">
    <path d="M83.848 18.178a.5.5 0 01-.848-.36V4.209a.5.5 0 01.854-.354l9.893 9.9a.5.5 0 01-.353.854h-5.662a.5.5 0 00-.317.113l-.013.011-3.554 3.446z"></path>
    <path d="M84.854 6.158a.5.5 0 00-.854.353v8.81a.5.5 0 00.847.36l2.122-2.05.019-.016a.5.5 0 01.329-.123l3.642.006a.5.5 0 00.355-.853l-6.46-6.487z"></path>
    </g>
  <g filter="url(#cursors_svg__filter5_d_15_3796)">
    <rect x="89" y="17.5" width="48" height="18" rx="1" fill="#D274FF"></rect>
    <path d="M94.498 22.68h1.203l2.262 6.031 2.256-6.031h1.203l-2.987 7.82h-.956l-2.98-7.82zm-.548 0h1.144l.2 5.22v2.6H93.95v-7.82zm6.875 0h1.15v7.82h-1.348v-2.6l.198-5.22zm4.117 2.009V30.5h-1.3v-5.811h1.3zm-1.385-1.526c0-.197.064-.36.193-.489.132-.132.315-.198.548-.198.229 0 .41.066.542.198a.651.651 0 01.199.49.645.645 0 01-.199.482c-.132.13-.313.194-.542.194-.233 0-.416-.065-.548-.194a.655.655 0 01-.193-.483zm5.287 6.413c.212 0 .401-.041.57-.123.171-.086.309-.204.413-.355a.956.956 0 00.177-.52h1.22a1.813 1.813 0 01-.333 1.025c-.215.308-.5.553-.854.736a2.576 2.576 0 01-1.177.268c-.444 0-.83-.075-1.16-.225a2.302 2.302 0 01-.822-.634 2.796 2.796 0 01-.494-.93 3.849 3.849 0 01-.161-1.127v-.188c0-.401.054-.777.161-1.128.111-.355.276-.666.494-.935.219-.268.493-.478.822-.628.33-.154.715-.23 1.155-.23.466 0 .874.092 1.225.278.351.183.626.439.827.768.204.326.31.706.317 1.14h-1.22a1.285 1.285 0 00-.161-.581 1.062 1.062 0 00-.397-.419 1.133 1.133 0 00-.607-.156c-.261 0-.478.054-.65.161a1.086 1.086 0 00-.403.43c-.097.18-.166.381-.209.607-.04.222-.059.453-.059.693v.188c0 .24.019.473.059.698.039.226.107.428.204.607.1.176.236.317.408.424.172.104.39.156.655.156zm4.762-7.326v8.25h-1.289v-8.25h1.289zm-.226 5.13l-.419-.006c.004-.401.059-.772.167-1.112.111-.34.265-.635.462-.886a2.051 2.051 0 011.648-.795c.287 0 .545.04.774.118.233.079.433.206.601.382.169.171.296.397.382.676.089.276.134.613.134 1.01V30.5h-1.3v-3.744c0-.279-.041-.501-.123-.666a.717.717 0 00-.349-.354 1.277 1.277 0 00-.564-.113 1.32 1.32 0 00-.618.14 1.29 1.29 0 00-.44.381 1.746 1.746 0 00-.269.559 2.59 2.59 0 00-.086.676zm8.446 1.954v-2.771c0-.208-.038-.387-.113-.537a.789.789 0 00-.344-.35 1.173 1.173 0 00-.569-.123 1.29 1.29 0 00-.548.108.887.887 0 00-.36.29.7.7 0 00-.129.413h-1.289c0-.229.056-.45.167-.666.111-.215.272-.406.483-.575.212-.168.464-.3.758-.397.293-.097.623-.145.988-.145.437 0 .824.073 1.16.22.34.147.607.37.8.666.197.294.296.663.296 1.107v2.583c0 .265.018.503.054.715.039.207.094.388.166.542v.086h-1.327a2.296 2.296 0 01-.145-.532 4.373 4.373 0 01-.048-.634zm.188-2.368l.011.8h-.929c-.24 0-.452.023-.634.07a1.304 1.304 0 00-.457.193.839.839 0 00-.365.725c0 .154.036.296.107.425a.757.757 0 00.312.295c.14.072.308.107.505.107.265 0 .496-.053.693-.16.2-.112.358-.246.472-.403a.873.873 0 00.183-.457l.419.575a1.959 1.959 0 01-.22.472c-.104.169-.24.33-.409.484a2.015 2.015 0 01-1.391.515c-.379 0-.718-.075-1.015-.225a1.803 1.803 0 01-.698-.618 1.604 1.604 0 01-.252-.886c0-.308.057-.58.171-.817.119-.24.29-.44.516-.601.229-.161.508-.283.838-.365a4.48 4.48 0 011.128-.13h1.015zm5.137 3.641a3.1 3.1 0 01-1.165-.209 2.568 2.568 0 01-.881-.596 2.644 2.644 0 01-.553-.897 3.14 3.14 0 01-.194-1.112v-.215c0-.455.067-.866.199-1.235.133-.369.317-.684.553-.945.237-.265.516-.468.838-.607.322-.14.672-.21 1.048-.21.415 0 .778.07 1.09.21.311.14.569.336.773.59.208.251.362.55.462.897.104.348.156.73.156 1.15v.553h-4.49v-.93h3.212v-.101a1.814 1.814 0 00-.14-.656 1.11 1.11 0 00-.381-.494c-.172-.125-.401-.188-.688-.188a1.17 1.17 0 00-.575.14c-.164.09-.302.22-.413.392-.111.172-.197.38-.258.623-.057.24-.086.51-.086.811v.215c0 .254.034.49.102.709.072.215.176.403.312.564.136.161.301.288.494.381.193.09.413.134.661.134.311 0 .589-.062.832-.187.244-.126.455-.303.634-.532l.682.66a2.638 2.638 0 01-.489.527c-.2.165-.446.299-.736.403a2.924 2.924 0 01-.999.155zm4.832-8.357v8.25h-1.3v-8.25h1.3z" fill="#fff"></path>
  </g></g><defs><filter id="cursors_svg__filter0_d_15_3796" x="0" y="209.52" width="18.895" height="22.613" filterUnits="userSpaceOnUse" color-interpolation-filters="sRGB"><feFlood flood-opacity="0" result="BackgroundImageFix"></feFlood><feColorMatrix in="SourceAlpha" values="0 0 0 0 0 0 0 0 0 0 0 0 0 0 0 0 0 0 127 0" result="hardAlpha"></feColorMatrix><feOffset dy="1"></feOffset><feGaussianBlur stdDeviation="2"></feGaussianBlur><feColorMatrix values="0 0 0 0 0 0 0 0 0 0 0 0 0 0 0 0 0 0 0.16 0"></feColorMatrix><feBlend in2="BackgroundImageFix" result="effect1_dropShadow_15_3796"></feBlend><feBlend in="SourceGraphic" in2="effect1_dropShadow_15_3796" result="shape"></feBlend></filter><filter id="cursors_svg__filter1_d_15_3796" x="5" y="223.313" width="61" height="26" filterUnits="userSpaceOnUse" color-interpolation-filters="sRGB"><feFlood flood-opacity="0" result="BackgroundImageFix"></feFlood><feColorMatrix in="SourceAlpha" values="0 0 0 0 0 0 0 0 0 0 0 0 0 0 0 0 0 0 127 0" result="hardAlpha"></feColorMatrix><feOffset dy="1"></feOffset><feGaussianBlur stdDeviation="2"></feGaussianBlur><feColorMatrix values="0 0 0 0 0 0 0 0 0 0 0 0 0 0 0 0 0 0 0.16 0"></feColorMatrix><feBlend in2="BackgroundImageFix" result="effect1_dropShadow_15_3796"></feBlend><feBlend in="SourceGraphic" in2="effect1_dropShadow_15_3796" result="shape"></feBlend></filter><filter id="cursors_svg__filter2_d_15_3796" x="121" y="223.52" width="18.895" height="22.613" filterUnits="userSpaceOnUse" color-interpolation-filters="sRGB"><feFlood flood-opacity="0" result="BackgroundImageFix"></feFlood><feColorMatrix in="SourceAlpha" values="0 0 0 0 0 0 0 0 0 0 0 0 0 0 0 0 0 0 127 0" result="hardAlpha"></feColorMatrix><feOffset dy="1"></feOffset><feGaussianBlur stdDeviation="2"></feGaussianBlur><feColorMatrix values="0 0 0 0 0 0 0 0 0 0 0 0 0 0 0 0 0 0 0.16 0"></feColorMatrix><feBlend in2="BackgroundImageFix" result="effect1_dropShadow_15_3796"></feBlend><feBlend in="SourceGraphic" in2="effect1_dropShadow_15_3796" result="shape"></feBlend></filter><filter id="cursors_svg__filter3_d_15_3796" x="127" y="238.813" width="39" height="26" filterUnits="userSpaceOnUse" color-interpolation-filters="sRGB"><feFlood flood-opacity="0" result="BackgroundImageFix"></feFlood><feColorMatrix in="SourceAlpha" values="0 0 0 0 0 0 0 0 0 0 0 0 0 0 0 0 0 0 127 0" result="hardAlpha"></feColorMatrix><feOffset dy="1"></feOffset><feGaussianBlur stdDeviation="2"></feGaussianBlur><feColorMatrix values="0 0 0 0 0 0 0 0 0 0 0 0 0 0 0 0 0 0 0.16 0"></feColorMatrix><feBlend in2="BackgroundImageFix" result="effect1_dropShadow_15_3796"></feBlend><feBlend in="SourceGraphic" in2="effect1_dropShadow_15_3796" result="shape"></feBlend></filter><filter id="cursors_svg__filter4_d_15_3796" x="79" y="0.707" width="18.895" height="22.613" filterUnits="userSpaceOnUse" color-interpolation-filters="sRGB"><feFlood flood-opacity="0" result="BackgroundImageFix"></feFlood><feColorMatrix in="SourceAlpha" values="0 0 0 0 0 0 0 0 0 0 0 0 0 0 0 0 0 0 127 0" result="hardAlpha"></feColorMatrix><feOffset dy="1"></feOffset><feGaussianBlur stdDeviation="2"></feGaussianBlur><feColorMatrix values="0 0 0 0 0 0 0 0 0 0 0 0 0 0 0 0 0 0 0.16 0"></feColorMatrix><feBlend in2="BackgroundImageFix" result="effect1_dropShadow_15_3796"></feBlend><feBlend in="SourceGraphic" in2="effect1_dropShadow_15_3796" result="shape"></feBlend></filter><filter id="cursors_svg__filter5_d_15_3796" x="85" y="14.5" width="56" height="26" filterUnits="userSpaceOnUse" color-interpolation-filters="sRGB"><feFlood flood-opacity="0" result="BackgroundImageFix"></feFlood><feColorMatrix in="SourceAlpha" values="0 0 0 0 0 0 0 0 0 0 0 0 0 0 0 0 0 0 127 0" result="hardAlpha"></feColorMatrix><feOffset dy="1"></feOffset><feGaussianBlur stdDeviation="2"></feGaussianBlur><feColorMatrix values="0 0 0 0 0 0 0 0 0 0 0 0 0 0 0 0 0 0 0.16 0"></feColorMatrix><feBlend in2="BackgroundImageFix" result="effect1_dropShadow_15_3796"></feBlend><feBlend in="SourceGraphic" in2="effect1_dropShadow_15_3796" result="shape"></feBlend></filter><clipPath id="cursors_svg__clip0_15_3796"><path d="M0 0h166v265H0z"></path></clipPath></defs></svg>
