<svg width="892" height="673" viewBox="0 0 892 673" fill="none" xmlns="http://www.w3.org/2000/svg" class=""><g opacity="0.6"><mask id="fun-grid_svg__a" maskUnits="userSpaceOnUse" x="-1" y="0" width="893" height="673" style="mask-type: alpha;"><path transform="rotate(180 891.751 672.211)" fill="url(#fun-grid_svg__paint0_radial_15_3626)" d="M891.751 672.211h891.751v672.211H891.751z"></path></mask><g opacity="0.3" stroke="#01020D" mask="url(#fun-grid_svg__a)"><path d="M891.251 671.711H1.243V1.484h890.008z"></path><g opacity="0.6"><path d="M847.201 672.211V1.727M802.65 672.211V1.727M758.1 672.211V1.727M713.549 672.211V1.727M668.999 672.211V1.727M624.449 672.211V1.727M579.898 672.211V1.727M535.348 672.211V1.727M490.797 672.211V1.727M446.247 672.211V1.727M401.696 672.211V1.727M357.146 672.211V1.727M312.595 672.211V1.727M268.045 672.211V1.727M223.495 672.211V1.727M178.945 672.211V1.727M134.394 672.211V1.727M89.843 672.211V1.727M45.294 672.211V1.727M891.751 626.176H0M891.751 581.625L0 581.626M891.751 537.075H0M891.751 492.525H0M891.751 447.974H0M891.751 403.422H0M891.751 358.873H0M891.751 314.323L0 314.324M891.751 269.772H0M891.751 225.221H0M891.751 180.67H0M891.751 136.122H0M891.751 91.57H0M891.751 47.02H0"></path></g></g></g><defs><radialGradient id="fun-grid_svg__paint0_radial_15_3626" cx="0" cy="0" r="1" gradientUnits="userSpaceOnUse" gradientTransform="rotate(-135 861.272 229.008) scale(378.625 424.017)"><stop stop-color="#D9D9D9"></stop><stop offset="1" stop-color="#D9D9D9" stop-opacity="0"></stop></radialGradient></defs></svg>
